<svg width="49" height="48" viewBox="0 0 49 48" fill="none" xmlns="http://www.w3.org/2000/svg">
<path d="M24.667 3.99902C16.6791 3.99902 10.1805 10.4976 10.1805 18.4854C10.1805 28.3986 23.1444 42.9516 23.6964 43.5662C24.2148 44.1436 25.12 44.1426 25.6376 43.5662C26.1894 42.9516 39.1534 28.3986 39.1534 18.4854C39.1532 10.4976 32.6548 3.99902 24.667 3.99902ZM24.667 25.774C20.6481 25.774 17.3786 22.5044 17.3786 18.4854C17.3786 14.4665 20.6482 11.197 24.667 11.197C28.6858 11.197 31.9554 14.4666 31.9554 18.4855C31.9554 22.5044 28.6858 25.774 24.667 25.774Z" fill="#1E6DF0"/>
</svg>
